
<svg version="1.1" id="Ebene_1" xmlns="http://www.w3.org/2000/svg" xmlns:xlink="http://www.w3.org/1999/xlink" x="0px" y="0px"
	 width="57.157px" height="56.994px" viewBox="0 0 57.157 56.994" enable-background="new 0 0 57.157 56.994" xml:space="preserve">
<g>
	<path  d="M45.313,7.021V0.933c-7.93,0.934-10.938,5.436-10.938,12.686v12.666c0,4.414-0.926,7.46-2.83,9.313
		c-0.986,0.961-2.154,1.668-3.42,2.111v6.475c2.914-0.585,5.604-1.99,7.779-4.106c3.177-3.091,4.721-7.603,4.721-13.792v-6.947h9.37
		v7.739c0,7.688-2.491,13.327-6.404,17.246c-3.961,3.965-9.432,6.421-15.466,6.421c-12.062,0-21.875-9.813-21.875-21.875
		c0-10.995,5.865-17.512,11.325-19.953c0,0-1.925,2.85-1.925,8.824c0,2.522,0,11.158,0,11.158h6.25v-9.561h6.142V13.4H21.9v-0.526
		c0-4.126,3.319-6.922,9.309-6.46V0.838L28.14,0.993C19.123,1.74,12.971,4.248,8.217,9.003C2.918,14.302,0,21.357,0,28.869
		c0,15.508,12.617,28.125,28.125,28.125c7.697,0,14.681-3.108,19.763-8.136s8.362-11.614,8.362-23.105c0-3.631,0-6.415,0-6.415
		v-5.702V13.4H40.631C40.681,9.719,41.969,7.667,45.313,7.021z"/>
</g>
<circle cx="53.143" cy="4.015" r="4.015"/>
</svg>
