<svg xmlns="http://www.w3.org/2000/svg" class="svg-logo" viewBox="0 -1 57.29 57.25">
    <style>
        .svg-logo {
            --strokeWidth: 3px;
            --transition: 0.5s;
            --delay1: 0s;
            --delay2: 0s;
        }

        .stroke {
            fill: none;
            stroke: currentColor;
            stroke-dasharray: 0px 100px;
            animation: strokeAni 0.5s 1s forwards, strokeAniExtend 1s 2.5s forwards;
            stroke-width: var(--strokeWidth);
        }

        .stroke2 {
            animation-duration: 0.75s;
            animation-delay: 1.5s, 2.5s;
        }

        .stroke3 {
            animation-duration: 0.25s;
            animation-delay: 2s, 2.5s;
        }

        .stroke4 {
            animation-delay: 2.5s, 2.5s;
        }

        #dot {
            stroke-linecap: butt;
            transform: scale(0);
            animation: dotAni 0.5s 2.5s forwards;
            transform-box: fill-box;
            transform-origin: center;
            stroke-width: 0px;
            stroke-linecap: butt;
        }

        @keyframes strokeAniExtend {
            to {
                stroke-width: 10px;
            }
        }

        @keyframes strokeAni {
            100% {
                stroke-dasharray: 100px 100px;
            }
        }

        @keyframes dotAni {
            75% {
                transform: scale(0);
                stroke-width: 0px;
                stroke-linecap: butt;
                opacity: 0;
            }

            100% {
                transform: scale(1.3);
                stroke-width: 10px;
                stroke-linecap: round;
                opacity: 1;
            }
        }
    </style>
    <clipPath id="clip">
        <path id="path1"
            d="M40.63 12.66h15.62v0.23 5.7s0 2.79 0 6.42c0 11.49-3.28 18.08-8.36 23.1s-12.07 8.14-19.76 8.14c-15.51 0-28.13-12.62-28.13-28.12 0-7.52 2.92-14.57 8.22-19.87 4.75-4.76 10.9-7.26 19.92-8.01l3.07-.16v5.58c-5.99-.46-9.31 2.33-9.31 6.46v0.53h6.14v5.93h-6.14v9.57h-6.25s0-8.64 0-11.16c0-5.98 1.92-8.83 1.92-8.83-5.45 2.44-11.32 8.96-11.32 19.96 0 12.06 9.81 21.87 21.88 21.87 6.03 0 11.5-2.46 15.46-6.42 3.91-3.92 6.41-9.56 6.41-17.25v-7.74h-9.37v6.95c0 6.19-1.55 10.7-4.73 13.79-2.17 2.12-4.86 3.52-7.77 4.11v-6.48c1.26-.44 2.43-1.15 3.42-2.11 1.9-1.85 2.83-4.89 2.83-9.31v-12.66c0-7.25 3-11.76 10.93-12.69v6.09c-3.34 .64-4.63 2.69-4.68 6.38zm12.51-13.4c-2.21 0-4.01 1.79-4.01 4.01s1.8 4.02 4.01 4.02 4.02-1.8 4.02-4.02-1.8-4.01-4.02-4.01z" />
    </clipPath>
    <g class="strokes" clip-path="url(#clip)">
        <path pathLength="100" class="stroke stroke1"
            d="M31.21 2.89h-3.28c-13.98 0-25.32 11.34-25.32 25.33s11.34 25.33 25.32 25.33c6.91 0 13.17-2.77 17.74-7.25 4.69-4.6 7.59-10.22 7.59-20.72v-10.03h-15.56" />
        <path pathLength="100" class="stroke stroke2" d="M30.9 2.89c-7.94 0-12.59 3.17-12.59 13.94v11.39" />
        <path pathLength="100" class="stroke stroke3" d="M18.62 15.55h9.31" />
        <path pathLength="100" class="stroke stroke4"
            d="M45.31 3.27c-4.28 0-7.61 1.98-7.61 12.28 0 0 0 8.97 0 12.67 0 5.7-4.64 11.7-9.55 11.7" />
        <path id="dot" class="stroke" d="M53 3.5 h0" fill="none" stroke-linecap="round" stroke="#000"
            stroke-width="0" />
    </g>
</svg>