<?xml version="1.0" standalone="no"?>
<!DOCTYPE svg PUBLIC "-//W3C//DTD SVG 20010904//EN"
 "http://www.w3.org/TR/2001/REC-SVG-20010904/DTD/svg10.dtd">
<svg version="1.0" xmlns="http://www.w3.org/2000/svg"
 width="700.000000pt" height="700.000000pt" viewBox="0 0 700.000000 700.000000"
 preserveAspectRatio="xMidYMid meet">
<metadata>
Created by potrace 1.14, written by Peter Selinger 2001-2017
</metadata>
<g transform="translate(0.000000,700.000000) scale(0.100000,-0.100000)"
fill="#000000" stroke="none">
<path d="M6395 6985 c-190 -48 -334 -197 -370 -384 -7 -35 -7 -149 0 -186 28
-150 133 -285 276 -353 193 -92 427 -44 571 117 232 258 129 669 -197 790 -72
27 -206 35 -280 16z"/>
<path d="M3768 6895 c-2 -2 -73 -6 -158 -9 -85 -4 -168 -9 -185 -10 -16 -2
-61 -6 -100 -10 -148 -15 -314 -36 -395 -51 -14 -3 -38 -7 -55 -10 -297 -51
-601 -136 -858 -240 -115 -47 -321 -149 -389 -191 -21 -13 -40 -24 -42 -24 -3
0 -40 -23 -83 -52 -579 -383 -1031 -956 -1284 -1627 -39 -102 -121 -374 -133
-436 -3 -16 -14 -79 -25 -138 -11 -59 -23 -129 -26 -155 -3 -26 -8 -56 -10
-67 -26 -128 -27 -668 0 -836 2 -13 6 -46 10 -74 14 -105 16 -120 21 -134 2
-8 7 -30 10 -50 9 -63 82 -333 117 -436 121 -354 284 -661 508 -960 125 -167
163 -211 333 -380 164 -163 202 -196 382 -330 199 -149 438 -289 654 -381 58
-25 119 -52 135 -59 120 -54 492 -157 665 -185 41 -7 82 -14 90 -15 8 -2 47
-6 85 -10 39 -4 79 -10 90 -12 36 -9 518 -11 595 -3 185 19 265 30 390 55 41
9 86 17 100 20 56 11 282 77 370 108 187 68 438 182 568 260 129 76 193 118
287 185 241 173 519 434 689 647 178 223 345 500 449 745 91 215 183 520 221
735 6 28 9 47 21 105 2 14 7 48 10 75 4 28 8 57 10 65 4 14 21 169 30 265 16
172 19 349 20 1160 l0 919 -950 0 c-522 0 -952 3 -955 8 -10 14 11 218 30 290
67 257 226 412 485 472 l50 11 3 378 c1 208 -1 376 -5 374 -5 -3 -30 -7 -58
-11 -27 -3 -75 -10 -105 -16 -30 -6 -66 -13 -80 -16 -51 -9 -207 -57 -276 -85
-446 -176 -719 -543 -790 -1064 -4 -27 -9 -63 -11 -80 -5 -28 -8 -309 -17
-1570 -2 -302 -6 -568 -9 -590 -4 -22 -9 -62 -12 -90 -4 -27 -18 -99 -31 -160
-69 -312 -188 -509 -403 -670 -75 -57 -227 -141 -286 -159 -20 -6 -20 -13 -19
-398 1 -216 2 -396 3 -400 0 -3 22 0 49 8 26 8 47 14 47 13 0 -1 20 4 45 11
143 37 364 136 502 226 153 98 321 245 413 359 22 28 43 52 46 55 28 25 132
197 184 303 98 202 156 392 195 634 39 247 43 340 44 925 1 331 4 508 11 509
6 1 263 2 572 3 369 1 563 -2 564 -9 0 -5 1 -237 1 -515 1 -456 -5 -731 -16
-800 -3 -14 -7 -52 -10 -85 -35 -355 -150 -740 -314 -1055 -76 -144 -230 -372
-323 -475 -55 -62 -233 -237 -283 -280 -169 -144 -424 -306 -628 -398 -286
-128 -562 -200 -893 -232 -64 -6 -359 -7 -410 -1 -16 2 -59 6 -95 10 -64 6
-100 11 -150 21 -14 3 -38 8 -55 11 -305 52 -669 198 -950 382 -176 114 -287
205 -440 357 -115 115 -155 160 -234 265 -31 41 -59 76 -63 78 -5 2 -8 10 -8
17 0 7 -3 15 -8 17 -15 7 -116 172 -181 299 -83 159 -179 412 -212 555 -6 27
-12 56 -14 64 -26 113 -37 172 -50 280 -23 174 -23 565 -1 687 2 10 7 50 11
88 15 153 74 412 133 585 206 601 605 1089 1113 1359 53 28 98 51 102 51 3 0
-10 -30 -29 -66 -60 -115 -128 -338 -158 -519 -36 -214 -39 -319 -40 -1135 l0
-725 382 -3 c359 -2 382 -1 383 15 0 10 0 273 1 585 0 420 3 568 11 570 7 2
175 4 375 3 199 0 362 2 363 5 1 3 2 164 3 358 0 223 -3 356 -9 360 -5 3 -174
6 -375 7 l-365 0 1 95 c4 249 117 459 322 599 63 43 196 99 293 125 122 31
201 40 377 41 119 0 142 2 143 15 1 19 1 606 0 641 -1 21 -6 27 -26 27 -13 0
-25 -2 -27 -3z"/>
</g>
</svg>
